<svg width="128" height="128" viewBox="0 0 128 128" fill="none" xmlns="http://www.w3.org/2000/svg">
<g clip-path="url(#clip0_1_254)">
<rect width="128" height="128" rx="64" fill="white"/>
<rect width="128" height="128" rx="64" fill="#6251FF"/>
<path d="M52.6429 25.9706C55.4238 24.2457 59.5547 23.1144 63.9153 24.98L64.3378 25.1691L64.3392 25.1707C70.1354 27.9038 71.6545 33.3777 71.723 37.1363C71.7279 37.4036 71.7236 37.67 71.7163 37.9355L101.626 30.2645C109.834 28.1593 118.171 33.1233 120.27 41.307C122.369 49.4907 117.45 57.8545 109.242 59.9596L92.7117 64.1992C92.6342 65.1767 92.4558 66.1308 92.197 67.0512C93.6512 71.5507 93.2545 76.8682 90.3461 81.0535C90.4606 82.1636 90.4393 83.3031 90.2699 84.4555C89.6693 88.5425 87.3902 91.783 85.048 94.0486C81.1591 97.8105 76.1522 99.3478 73.624 100.191L66.1419 102.685L65.1879 103.002C61.4612 104.245 57.6317 104.792 54.8326 105.23C52.0079 105.672 49.9825 106.034 48.2378 106.624C42.9799 109.432 39.3557 111.332 36.8909 112.603C30.1577 116.075 22.1566 113.953 17.8478 108.055C9.56696 96.7201 3.76628 82.7869 4.91604 67.4491C5.03518 65.8599 5.18745 64.2883 5.38061 62.8295L5.4381 62.4286C6.08987 58.3144 8.29872 54.9034 11.5126 52.6652C14.6225 50.4995 18.1747 49.7542 21.2847 49.7365L30.8403 49.6822L30.9934 49.5401L31.1797 49.3663L31.3748 49.2033C31.4087 49.1751 31.4434 49.1475 31.4774 49.1196C32.1383 48.519 32.9495 47.7902 33.4675 47.3742L36.2328 45.1527C40.1659 41.6975 42.9064 37.3373 47.1717 31.3602C48.3292 29.7381 50.1292 27.5299 52.6429 25.9706Z" fill="white" stroke="#7B91FF" stroke-width="18"/>
<path d="M55.0149 29.7942C56.8935 28.629 59.4648 27.9687 62.1579 29.1226L62.4189 29.2402L62.4201 29.2409C66.1078 30.9798 67.173 34.4507 67.2235 37.2186C67.2665 39.5844 66.6355 42.0266 65.9222 44.0671L102.744 34.6234C108.537 33.1376 114.428 36.6409 115.911 42.4249C117.395 48.209 113.917 54.115 108.124 55.6007L87.9566 60.7731C88.5202 62.93 88.2446 65.1235 87.4163 67.126C89.2747 71.0899 88.9425 76.3088 85.5178 79.7987C85.9122 81.0712 86.0198 82.4231 85.8173 83.8009C85.407 86.5933 83.8142 88.9817 81.9199 90.8142C78.8867 93.7484 74.9018 95.0207 72.2013 95.9209L64.7183 98.4158L63.7645 98.734C60.466 99.8335 57.041 100.329 54.136 100.784C51.1938 101.245 48.7015 101.673 46.4247 102.491C41.0137 105.382 37.3161 107.32 34.8277 108.603C30.1265 111.028 24.5237 109.565 21.482 105.401C13.62 94.6395 8.35731 81.7457 9.4039 67.7851C9.51867 66.2542 9.66193 64.771 9.84088 63.4196C10.2425 60.3866 11.7989 57.9505 14.0841 56.359C16.2658 54.8396 18.8626 54.2502 21.3107 54.2364L32.6251 54.1725L34.0648 52.8284L34.1576 52.7421L34.2557 52.6605C34.3064 52.6182 34.3579 52.5769 34.4091 52.5354C35.1109 51.8971 35.8675 51.2181 36.2849 50.8829L39.1214 48.6048C43.6073 44.6898 46.7605 39.6833 50.8351 33.9734C51.8688 32.525 53.254 30.8865 55.0149 29.7942Z" fill="white" stroke="#9EAEFF" stroke-width="9"/>
<path d="M56.3321 31.9193C57.6652 31.0924 59.3054 30.6916 61.0113 31.3544L61.3535 31.5015L61.3538 31.5025C63.8701 32.689 64.6833 35.0463 64.7237 37.2639C64.763 39.4171 64.1135 41.7846 63.3462 43.8467C62.8047 45.3019 62.0667 46.6361 61.2034 47.8583L103.365 37.045C107.817 35.9034 112.348 38.5951 113.49 43.046C114.631 47.4969 111.954 52.0374 107.503 53.1791L84.4172 59.0999C84.8229 59.6351 85.1487 60.2283 85.3774 60.8781C86.0945 62.916 85.7533 65.1462 84.6108 67.2013C86.9277 70.7987 86.6037 76.2312 82.4762 79.0877C83.2764 80.419 83.5684 81.9087 83.3438 83.4372C83.0391 85.5104 81.8274 87.426 80.1818 89.0178C77.624 91.4921 74.2069 92.6177 71.4107 93.5498L63.9277 96.0447L62.9737 96.3619C59.9132 97.3821 56.7134 97.8503 53.7496 98.3143C50.7642 98.7816 47.9928 99.2482 45.4086 100.199C39.9171 103.135 36.1818 105.093 33.6823 106.382C30.1098 108.224 25.8378 107.126 23.5001 103.926C15.8711 93.483 10.9077 81.1674 11.8968 67.9725C12.0091 66.4739 12.1484 65.0395 12.3194 63.7477C12.6284 61.4147 13.8015 59.6022 15.5134 58.41C17.1792 57.25 19.2447 56.7478 21.3247 56.7361L33.6175 56.6663C33.6506 56.6354 33.6846 56.6039 33.7193 56.5716L34.1486 56.1702L35.7716 54.656L35.8121 54.6174L35.8562 54.5809C35.9175 54.5298 35.979 54.4792 36.0412 54.4296C36.7749 53.7618 37.4955 53.1176 37.8505 52.8324L40.7308 50.5169C45.5206 46.3477 48.9065 40.981 52.8703 35.4264C53.835 34.0745 54.9895 32.7523 56.3321 31.9193Z" fill="white" stroke="#BEC9FF" stroke-width="4"/>
</g>
<defs>
<clipPath id="clip0_1_254">
<rect width="128" height="128" rx="64" fill="white"/>
</clipPath>
</defs>
</svg>
